<svg width="245" height="82" viewBox="0 0 245 82" fill="none" xmlns="http://www.w3.org/2000/svg">
<path d="M16.208 54.2107C14.0225 54.2107 11.8994 53.7811 9.89703 52.9338C7.96603 52.117 6.23366 50.9484 4.74691 49.461C3.26016 47.9736 2.09276 46.2404 1.27564 44.3086C0.429375 42.3059 0 40.1819 0 37.9953V20.1938H12.4887V37.9953C12.4887 40.0474 14.1575 41.7163 16.208 41.7163C18.2591 41.7163 19.9273 40.0468 19.9273 37.9953V20.1938H32.416V37.9953C32.416 40.1819 31.9866 42.3059 31.1398 44.3092C30.3233 46.241 29.1553 47.9742 27.6685 49.4616C26.1817 50.949 24.4494 52.117 22.5184 52.9344C20.5166 53.7811 18.3935 54.2107 16.208 54.2107Z" fill="white"/>
<path d="M70.567 52.7433H58.1077V35.1224C58.1077 32.6524 56.097 30.6437 53.6253 30.6437C51.1536 30.6437 49.1429 32.653 49.1429 35.1224V52.7433H36.6836V35.1224C36.6836 32.8398 37.1321 30.6217 38.0173 28.5306C38.8711 26.5136 40.0915 24.7041 41.6454 23.1513C43.1992 21.5985 45.0106 20.3789 47.0284 19.5257C49.1221 18.6417 51.3417 18.1929 53.6259 18.1929C55.9101 18.1929 58.1296 18.6411 60.2222 19.5257C62.2406 20.3789 64.0514 21.5985 65.6052 23.1513C67.1591 24.7041 68.3795 26.5142 69.2333 28.5306C70.1185 30.6217 70.567 32.8398 70.567 35.1224V52.7433Z" fill="white"/>
<path d="M89.6452 52.7434H76.1719V24.8128C76.1725 21.0832 79.1881 18.0596 82.9085 18.0596C86.629 18.0596 89.6452 21.0832 89.6452 24.8128V52.7434Z" fill="white"/>
<path d="M136.663 36.7955C138.189 37.5085 139.458 37.6911 140.774 35.015L143.921 28.7162C145.237 26.0401 144.48 24.834 143.115 24.1919C141.592 23.5559 140.344 23.913 139.322 26.0373L135.96 32.8849C134.865 35.1664 135.458 36.2244 136.663 36.7955Z" fill="white"/>
<path d="M86.7192 62.5865C84.1363 67.1647 89.9208 71.9597 94.7425 66.1367C98.661 61.4296 102.71 56.0225 106.972 49.9895C116.661 43.5921 124.335 42.2142 129.217 42.0253C130.95 41.9583 132.376 42.1348 132.418 43.2141C132.525 45.9896 128.225 51.0203 124.878 56.2458C123.914 57.8273 124.668 58.9564 126.509 59.6573C128.271 60.3612 129.325 59.085 130.45 57.5745C135.836 50.031 138.655 45.4436 138.527 42.1284C138.396 38.7362 135.483 36.8413 128.475 37.1125C123.278 37.3135 117.896 38.8344 112.858 41.114C119.175 31.1409 125.76 19.922 132.32 8.08638C133.13 6.58803 132.622 5.68115 131.49 4.95283C130.518 4.29551 129.479 3.94963 128.34 5.07468C114.531 19.121 110.634 22.3603 102.932 29.1441C101.023 30.7622 100.593 31.8598 101.685 33.5934C102.359 34.7255 103.64 35.2164 105.013 34.0052C106.616 32.6305 112.942 26.9809 119.718 20.6963L103.446 46.4969C95.4535 51.9021 88.8595 58.7975 86.7192 62.5865Z" fill="white"/>
<path d="M137.351 52.5201C135.811 55.5137 136.529 55.7176 138.067 56.739C139.12 57.4704 140.217 57.2736 141.441 56.2997C149.394 49.8922 166.965 35.237 166.753 29.7632C166.663 27.4503 164.118 24.8463 162.15 24.9225C161.598 24.9438 161.144 25.4247 161.092 26.1216C161.082 27.8979 161.69 29.3414 159.129 32.4517C157.016 34.927 151.771 39.9943 146.823 44.5868C148.776 40.033 150.257 35.4974 150.454 34.486C150.864 32.8487 150.274 31.8677 148.27 31.0187C146.187 30.1728 145.586 30.9681 145.098 32.6085C142.464 41.9759 139.559 48.4196 137.351 52.5201Z" fill="white"/>
<path d="M173.63 28.1846C175.083 29.0549 176.276 29.3176 177.913 26.7835L181.708 20.9229C183.345 18.3888 182.665 17.1025 181.375 16.3803C179.925 15.5871 178.671 15.79 177.41 17.8463L173.321 24.2587C171.984 26.3952 172.501 27.5333 173.63 28.1846Z" fill="white"/>
<path d="M158.317 52.1725C160.182 53.4901 161.49 52.6674 162.396 51.6286C166.618 46.6009 170.955 40.4877 175.102 33.5326C176.063 31.874 174.777 31.2289 173.805 30.5716C172.588 29.6921 171.232 29.2813 169.81 31.2666C165.548 37.2996 163.096 41.1779 158.226 47.7749C156.725 49.7632 156.688 50.8456 158.317 52.1725Z" fill="white"/>
<path d="M171.533 43.7299C170.448 45.6687 170.142 46.7517 172.123 47.8911C174.024 48.954 174.809 48.6382 176.366 46.5408C177.3 45.2978 179.245 42.5025 181.032 39.7086C181.653 38.6999 182.671 37.9191 183.771 37.6004L180.358 43.5726C179.194 45.5892 179.673 46.2793 180.862 47.0401C182.051 47.8009 183.554 48.4045 185.031 46.2306C186.898 43.5131 190.004 38.3925 191.242 35.9122C192.401 33.3555 192.703 31.9639 190.251 30.9832C188.433 30.3053 186.079 31.484 184.901 31.8805C184.895 31.1861 184.34 30.8054 183.782 30.1932C182.669 29.046 181.716 28.283 179.772 31.1555C177.828 34.028 174.561 38.7643 171.533 43.7299Z" fill="white"/>
<path d="M239.974 18.5147C222.887 19.1758 204.999 21.5664 196.316 23.3694C192.639 24.1294 192.438 25.0637 192.501 26.6827C192.546 27.8392 193.36 28.5026 194.235 28.7004C196.866 29.4479 199.098 30.0565 200.854 30.6062C196.843 32.9233 190.607 38.8783 190.483 43.8247C190.501 44.2872 190.597 44.7468 190.615 45.2094C187.255 48.0418 176.796 56.9398 173.066 60.4042C171.696 61.6926 171.178 62.562 171.307 63.8696C171.41 64.4833 171.606 65.4795 172.023 66.081C169.048 68.6669 167.184 71.4415 167.113 73.6833C167.063 76.4649 169.164 77.7735 172.162 77.8119C185.893 78.0528 215.41 64.4025 215.578 56.5203C215.637 53.97 212.976 52.4515 208.006 52.4122C200.983 52.2978 190.897 54.5411 184.052 56.9679L186.33 54.7178C189.9 51.1824 192.427 49.2315 194.566 47.4501C202.604 47.2935 212.187 40.2053 212.275 34.3338C212.371 30.7011 207.924 27.8619 203.379 26.5707C215.458 24.868 226.775 23.8897 241.1 23.181C242.908 23.0339 242.966 22.4911 242.916 21.1805C242.732 18.4852 241.551 18.5309 239.974 18.5147ZM190.35 62.824C193.088 62.2548 192.439 59.7319 191.161 59.3181C198.803 57.0921 209.004 55.7709 208.903 57.2418C208.88 60.7173 182.392 73.1694 173.476 73.0511C172.846 73.0755 172.674 72.6961 172.659 72.3106C172.715 69.6832 180.489 64.7497 190.35 62.824ZM205.913 32.9585C206.806 33.6188 206.987 34.2295 207.008 34.7692C206.955 37.4737 198.179 42.9864 196.268 42.5199C195.308 42.171 199.57 36.138 205.913 32.9585Z" fill="white"/>
</svg>
